<?xml version="1.0" encoding="UTF-8"?>
<svg enable-background="new 0 0 2592 1461" version="1.1" viewBox="0 0 2592 1461" xmlns="http://www.w3.org/2000/svg">
 <path d="m1 800c7.0787-1.0145 14.201-1.798 21.219-3.1308 4.1539-0.7889 7.4474-2.7218 8.6847-7.6797 1.6928-6.7833 8.3756-12.36 15.102-11.369 3.1465 0.4637 6.1643 0.0405 8.7755 0.4839 6.1355 1.0421 12.109-1.2291 18.066 0.3151 4.886 1.2667 8.2327-1.1528 10.728-4.9995 0.8225-1.2682 1.6497-0.7866 2.5562-0.5621 2.3205 0.5745-0.0475 1.2355 0.0213 1.8497 0.3278 2.9281 2.8136 2.2143 4.1493 1.8228 7.7549-2.2731 15.349 0.4188 23.001 0.59 5.5327 0.1238 10.572 2.8716 15.808 4.9012 12.577 4.8744 23.983 13.194 38.159 13.904 4.5097 0.2256 8.8353 0.539 13.343-0.4218 6.0902-1.2982 12.25-0.6661 18.184 1.3397 1.3166 0.4451 3.4473 0.7899 2.9965 2.659-0.4191 1.7379-2.4877 1.1683-3.9303 1.2979-13.17 1.1833-26.195-1.093-39.292-1.6409-1.9953-0.0835-3.9934-0.2365-5.987-0.1961-4.4312 0.0897-7.4564 1.3081-7.9591 6.7401-0.438 4.7337-1.638 9.661-3.6892 13.932-6.4813 13.497-6.9681 28.132-9.3439 42.466-0.7959 4.8016-0.2584 10.175-3.9084 14.575-1.4299 1.7239 0.4164 4.7581 0.9587 7.1611 0.9045 4.0079 1.9992 7.8627-3.6119 9.6372-2.8604 0.9045-0.9501 5.5298-3.8072 6.4783-2.2656 0.7521-3.5953-4.4734-6.7759-1.5891-0.6478 0.5875-1.8532 0.5074-2.3051-0.1505-2.6623-3.8768-8.0427-4.5485-10.519-7.9016-7.0304-9.5212-15.646-18.1-19.197-29.924-1.4463-4.8163-2.7696-9.7528-2.8456-14.648-0.1189-7.6546-1.778-14.776-4.7029-21.712-2.0565-4.8772-3.4393-9.7419 0.8338-15.778-4.7072 2.0309-6.1781 5.362-7.8914 7.7315-3.6503 5.0485-10.022 8.8698-8.803 16.727 0.3065 1.9761-1.0172 4.6669-3.3206 5.0833-2.6977 0.4877-2.4942-2.4907-3.3792-4.1129-0.6325-1.1593-1.3401-2.2777-2.2242-3.7685-1.5039 2.4747-1.2583 5.3464-2.947 7.3976-0.9548 1.1597-1.7083 2.6155-3.5314 2.267-1.6735-0.3198-1.7689-1.8309-1.971-3.1223-0.5841-3.7343-1.0553-7.3524-5.4557-2.3044-0.9127 1.0471-2.6141 1.7344-4.1079 0.9954-1.2447-0.6158-0.8812-2.1071-0.801-3.1822 0.3054-4.0893-0.1454-6.9769-5.4687-4.9065-1.6238 0.6315-3.7893 0.462-2.6763-2.3015 1.5831-3.9312-0.3042-5.149-4.4089-5.1671 3.0968-4.1046 3.2788-8.718 5.0152-12.798 1.2972-3.048-0.0068-3.9324-3.0184-3.4305-6.7686 1.128-13.099 3.8097-19.722 5.442v-9zm60.41-18.264c0.1938 0.1472 0.4087 0.3271 0.6472 0.4668 0.0253 0.0148 0.2935-0.2424 0.2697-0.3118-0.0877-0.2551-0.251-0.4842-0.386-0.7232-0.1776 0.1901-0.3552 0.3803-0.5309 0.5682z"/>
 <path d="m2593 118c-3.9421 1.4739-8.1768 1.1414-11.774-0.1471-9.4045-3.369-18.836-2.1579-28.176-0.8848-19.76 2.6935-39.622 4.7352-58.963 10.187-7.2622 2.0471-15.131 1.9475-22.727 2.801-1.2039 0.1353-2.3713 0.0591-2.7344-1.4702-0.3586-1.5095 0.6353-2.0856 1.7449-2.5931 5.261-2.407 10.237-5.2129 14.904-8.7245 3.9307-2.9576 8.864-2.4422 12.869-0.3232 2.2512 1.191 3.8669 1.0077 5.9229 0.6511 8.0293-1.3926 16.118-2.4944 24.089-4.1612 10.582-2.2129 18.426-8.6943 25.316-16.76 5.3899-6.3092 6.3992-9.1309 4.2744-17.39-2.2847 0.5848-2.3044 3.0709-3.6956 4.3613-0.9736 0.9032-1.9236 2.1093-3.405 1.6785-1.6394-0.4768-1.4692-2.0114-1.4016-3.3425 0.0847-1.6637 0.0977-3.3461 0.3726-4.9815 0.4246-2.5232 0.4934-4.4322-1.8137-6.6128-2.3264-2.1986-1.1577-5.9997-1.2036-9.0991-0.0439-2.9953 0.1736-5.7855-1.8362-8.5062-2.5303-3.4254 1.4585-6.5642 1.3184-10.21-0.0781-2.0362 4.2554-1.505 6.2058-1.0005 7.5459 1.9514 15.255 3.175 22.722 5.5386 5.8333 1.8463 11.982 2.6955 17.991 3.9879-2e-4 22.333-2e-4 44.666-2e-4 67z"/>
 <path d="m1505.4 949.36c4.895 0.1996 7.3046-4.0782 10.946-6.134 2.0079-1.1335 3.7513-2.7278 5.6589-4.0494 1.0922-0.7566 2.5037-1.7205 3.5416-0.401 0.9574 1.2172-0.0905 2.5361-1.0167 3.5004-4.0413 4.2073-8.6991 7.697-13.272 11.284-0.618 0.4847-1.4723 0.8324-1.2485 2.2827 5.8842-1.4673 10.67-5.1681 16.07-7.4661 2.6771-1.1393 6.7493-4.1684 7.9169-1.8683 1.3722 2.7029-3.4637 3.8305-5.8228 5.288-4.3563 2.6915-8.8766 5.1178-13.222 8.2009 8.0536-0.4906 15.664-3.7398 23.886-3.8154-3.5135 3.8981-9.405 2.5898-13.201 5.7916 0.0977 0.2679 0.1201 0.6876 0.3057 0.7802 2.344 1.1695 6.1455-1.6 7.1635 1.3242 0.8293 2.3826-3.3424 3.1046-4.6646 5.207-2.827 4.4955-5.411 8.7575-5.4124 14.601-2e-3 8.7147-2.1255 17.126-7.8438 24.2-0.8134 1.0062-1.1133 2.4152-1.8701 3.4822-1.9663 2.7712-0.7142 4.2632 2.0582 4.1638 5.0399-0.1807 8.6985 2.6271 12.818 4.7509 5.9077 3.0454 12.49 2.5287 18.474 0.7426 7.2849-2.1747 13.704-0.6633 20.216 2.1089 0.9142 0.3892 1.9406 0.925 1.5822 2.1649-0.3553 1.2295-1.4441 2.052-2.6359 1.9424-5.1875-0.4773-10.309 1.0543-15.432 0.6124-9.4926-0.8184-18.994-0.5724-28.459-0.222-7.7487 0.2869-15.183 2.5524-22.7 4.8093-17.001 5.1046-34.272 9.8833-52.38 5.5173-5.1718-1.2468-10.364-2.4158-15.565-3.5319-9.5741-2.0543-18.373 1.8906-27.471 3.5964-19.432 3.6436-38.669 8.348-58.438 10.629-0.6798-2.9442 0.7811-4.562 3.4114-5.7372 3.3271-1.4866 6.1113-3.6819 8.8738-6.1724 4.5973-4.1444 10.863-3.8777 16.195-2.4475 9.7341 2.6106 18.797 0.6974 27.818-2.254 6.0441-1.9773 11.485-5.3563 15.829-10.087 4.6547-5.0694 11.283-7.6326 15.775-12.932 1.7006-2.0059 2.929-3.9437 3.2181-6.5238 1.8381-16.402-1.1254-31.846-9.5754-46.06-2.4478-4.1176-3.6045-8.2741-2.3616-12.835 1.0358-3.8005 0.9006-7.4683 0.407-11.327-2.1405-16.732 2.4674-32.292 8.8148-47.471 0.6918-1.6541 2.4653-5.0674 3.3237-3.968 2.173 2.7837 8.3865 1.166 7.4122 7.3134-0.7328 4.6238-1.944 9.0778-3.391 14.816 2.8583-5.1058 5.0822-9.1616 7.3988-13.164 0.6519-1.126 1.4482-2.5435 3.0063-2.2091 1.7148 0.368 1.986 1.9993 2.2754 3.5187 0.6798 3.5681-1.1007 6.4474-2.4701 9.4744-1.0094 2.2314-1.838 4.5447-2.076 7.2658 2.6974-3.2082 5.3536-6.4523 8.1118-9.6072 1.152-1.3175 2.3425-3.3807 4.4614-2.0964 2.3489 1.4236 1.8051 3.7941 0.7374 5.7739-1.6383 3.0385-3.5369 5.9366-5.6342 9.4058 4.5691-0.5316 7.1575-4.1123 10.911-5.0944 0.9803-0.2564 1.9489-0.7452 2.8103 0.0129 0.8604 0.7572 0.8999 1.9789 0.322 2.7604-3.2688 4.4219-0.9198 8.9695 0.7631 12.582 5.2031 11.17 8.8114 23.122 16.66 33.094 2.7688 3.5181 3.8551 2.3852 5.7506 0.1943 5.6619-6.5437 11.085-13.304 17.588-19.069 1.2003-1.0643 2.505-3.2214 4.0609-2.0768 1.9344 1.4232 0.0337 3.3969-0.8776 4.7231-2.7216 3.9609-5.6587 7.7867-9.4919 10.797 0.0616 0.156 0.1143 0.2856 0.1428 0.4204 0.0413 0.1951 0.0651 0.3939 0.0963 0.5911-0.0924-0.368-0.1853-0.736-0.2782-1.1041z"/>
 <path d="m384.6 927.6c3.312 0.0017 4.869-2.543 6.6837-4.6643 2.9211-3.4147 5.733-6.9241 8.7013-10.296 0.7948-0.903 1.8401-2.5153 3.219-1.4735 1.2514 0.9455 0.436 2.5994-0.2735 3.6493-2.9712 4.3968-5.5003 9.1398-9.5842 12.703-0.5919 0.5164-1.3755 0.9614-1.1 2.3806 7.5939-1.9251 12.587-8.7284 21.086-11.52-3.4466 6.6959-10.005 8.1742-13.971 13.123 4.6598 0.8428 8.1985-2.1857 12.422-2.1722-0.2069 2.4767-3.2723 1.7167-3.6144 3.651 0.1964 0.2379 0.3882 0.6755 0.5866 0.6785 6.7892 0.103 7.4096 0.4346 4.2163 6.3022-4.9463 9.0887-6.5766 18.967-8.9536 28.765-1.2833 5.2899-4.1622 10.192-7.6671 14.478-2.3419 2.8637-1.0368 4.1947 1.6541 5.0461 2.7094 0.8573 5.5389 1.0616 8.3977 0.9323 3.9283-0.1777 7.8115 0.3357 10.393 3.609 4.295 5.4459 10.204 6.0303 16.477 6.6852 7.2159 0.7532 14.241-1.0427 21.386-0.7017 4.3139 0.206 8.5211 0.5452 12.758 4.0692-6.9857 1.1672-13.34 2.9967-19.431 2.0434-30.005-4.6962-59.785-1.7963-89.593 1.6271-8.7245 1.002-17.246 0.4733-25.56-2.7593-8.3443-3.2444-16.615-2.3596-24.671 1.2728-5.7448 2.5901-11.784 3.5679-18.033 3.1532-18.92-1.2552-37.544 1.0377-56.079 4.5176-0.7686 0.1443-1.5758 0.0835-3.2114 0.1556 5.8924-4.2266 12.436-6.0313 16.492-11.384 0.6645-0.877 1.7009-0.7723 2.7567-0.6105 12.688 1.944 25.47-0.294 38.27 1.1066 8.1363 0.8903 15.422-3.6431 20.25-10.779 3.2911-4.8638 6.9365-9.3487 11.728-12.807 3.8042-2.7451 4.8098-6.6046 4.3535-11.002-1.3621-13.127-3.2392-26.133-10.614-37.542-3.1214-4.8287-3.2963-9.9688-2.0706-15.295 0.4197-1.8237 0.6401-3.5658 0.3159-5.4181-2.8616-16.349 0.8985-32.064 4.684-47.762 0.3433-1.4237 1.2148-2.7238 1.8727-4.0657 0.197-0.4017 9.1968-1.8049 9.4521-1.4765 0.9861 1.2686 0.864 2.8256 1.0465 4.2974 0.2768 2.2324-0.8183 4.5829 0.4676 6.769 0.411-0.0979 0.8109-0.0695 0.9859-0.2542 1.4803-1.5613 1.6875-5.276 4.696-4.1737 2.8628 1.0488 1.6896 4.2004 1.6271 6.6207-0.0462 1.7861-1.0928 3.5047-0.3991 5.4448 2.092-0.5815 2.5434-2.563 3.7108-3.8713 0.8292-0.9293 1.6443-2.3958 3.2499-1.6527 1.3705 0.6343 1.69 2.0079 1.5079 3.4153-0.2127 1.6434-0.4403 3.2977-0.8499 4.899-0.4055 1.5853-0.8803 3.121-0.4284 5.4118 2.0527-1.5974 3.6657-2.9291 5.3641-4.1412 0.8234-0.5876 1.8461-0.8599 2.8242-0.3007 0.9652 0.5517 1.5533 1.5225 1.0049 2.5118-2.8824 5.1998 1.0306 9.0699 3.0304 12.861 3.0483 5.7789 6.0121 11.602 7.5277 17.866 1.7157 7.0914 7.518 12.061 8.9047 19.305 0.6007 3.1379 2.9958 2.394 4.6332 0.0782 3.8524-5.4492 6.8431-11.402 10.182-17.154 1.1338-1.9532 2.1411-5.846 4.6968-4.7187 2.4185 1.0667-0.0685 4.1985-0.7808 6.1768-1.6195 4.4976-3.1617 9.1372-6.8206 12.556 0.0608 0.0472 0.1141 0.1008 0.1674 0.1544-0.0252-0.1071-0.0505-0.2142-0.0758-0.3212zm5.326 34.609c0.816-4.769-1.4303-7.8999-4.8014-10.261-1.0428-0.7304-2.6968-1.9785-4.0664-0.8386-1.3012 1.0828-0.6762 2.9002-0.1947 4.2114 1.8981 5.169 3.05 10.445 3.0651 15.964 0.0027 0.9642 0.012 2.2567 1.3443 2.1981 1.1403-0.0502 2.2315-0.7594 2.6584-1.9651 1.1-3.1063 2.5925-6.1391 1.9947-9.3087z"/>
 <path d="m959.61 932.37c1.1653-0.1141 1.6606-0.973 2.1028-1.8911 0.6866-1.4258 0.9323-3.7367 3.1788-2.9865 2.0939 0.6992 2.8616 2.8365 2.4904 4.9495-0.5127 2.9181-1.5887 5.7408-1.4407 9.1989 2.4219-0.9487 3.0472-3.1191 4.2485-4.7313 0.9971-1.3381 1.9967-3.1018 3.9527-2.0363 1.7212 0.9377 1.5193 2.8253 0.9996 4.476-0.6772 2.1516-1.4835 4.2625-2.2789 6.5172 3.6738 0.835 5.8557-3.6268 8.5715-2.2484 2.2905 1.1626 0.5698 4.9321 2.742 7.2603 4.7661 5.1085 8.6026 10.969 11.203 17.549 0.3604 0.9119 0.9752 1.7491 1.5861 2.532 5.5437 7.1038 7.9667 7.0989 14.833 1.1453 7.6132-6.6013 11.777-15.636 17.482-23.581 1.5092-2.1017 2.6979-4.491 5.6508-6.0497 0.2325 5.6364-4.0656 8.9701-4.5052 14.089 3.772-4.3068 7.5439-8.6135 11.316-12.92 0.3915 0.2755 0.783 0.551 1.1744 0.8265-0.4196 6.9698-7.2949 10.652-10.097 17.864 7.1877-3.4496 11.862-8.7676 18.21-11.58-2.3534 6.6526-9.4337 8.996-14.356 15.157 6.1741-1.8578 11.102-3.3406 16.515-4.9694-0.4644 2.7939-3.7339 2.1309-3.8984 4.367 0.1777 0.1934 0.3696 0.5999 0.5974 0.621 6.4358 0.5977 6.3684 0.5533 3.28 6.0675-3.2548 5.8109-6.0116 11.838-7.8511 18.283-2.5448 8.9179-6.5297 17.12-13.199 23.73-2.1757 2.1564-1.6611 3.4645 0.8005 4.3284 13.278 4.6603 26.277 10.227 40.896 9.6693 5.1438-0.1962 9.3579-3.2881 14.538-3.105 3.0103 0.1064 5.938-0.0127 8.8102 1.0355 1.179 0.4302 2.9602 0.1417 2.825 2.0859-0.1189 1.7111-1.3674 2.4862-3.0045 2.8418-6.0408 1.3123-12.116 2.1703-18.314 1.5958-5.6384-0.5227-11.27-1.1255-16.91-1.6218-1.4847-0.1305-3.1523-0.4163-4.464 0.0834-8.738 3.3281-17.78 1.4451-26.684 1.9813-8.4295 0.5077-16.78 2.3094-25.168 3.5286-10.011 1.4553-20.003 3.9558-30.156 1.2152-5.2537-1.4183-10.1-3.9838-15.772-4.3387-3.8168-0.2389-7.6592-0.7144-11.435-0.3682-14.744 1.3512-29.782-1.4722-44.263 2.2657-9.6525 2.4917-19.524 1.8284-29.145 3.7257-0.8026 0.1583-1.6558 0.1587-2.3361-0.6031-0.2029-1.494 1.061-1.8754 2.0178-2.4287 4.8607-2.8121 9.8742-5.2439 14.226-9.0217 4.3259-3.7556 10.146-2.4192 14.931-1.254 16.069 3.9128 31.013 3.3485 44.216-7.9733 2.39-2.0494 4.7478-4.3764 7.5407-5.6631 5.0233-2.3143 5.8459-6.0233 4.5591-10.668-2.384-8.6055-5.6334-16.789-12.935-22.575-2.5118-1.9903-3.9456-4.3425-4.027-7.6256-0.3272-13.208 1.4056-26.223 3.6454-39.182 0.5068-2.9323 1.463-5.8192 2.5129-8.614 0.705-1.8766 1.5159-4.7947 4.2455-1.4888 0.105 0.1272 0.2166 0.3363 0.34 0.3478 1.8085 0.1692 3.9825-2.8254 5.3923 0.4118 1.3658 3.1365 0.9954 6.5023 0.5884 9.8215 0.0507 0.2346 0.1021 0.4597 0.1535 0.6846-0.0439-0.2438-0.0879-0.4879-0.1319-0.7321zm64.568 62.266c0.4496-6.6023-6.462-12.499-12.269-11.062-2.0092 0.4973-2.2056 2.0633-1.2971 3.4886 2.5822 4.0507 5.1686 8.1271 8.1345 11.893 1.6332 2.0739 3.6869 2.2651 4.4824-1.0898 0.3044-1.284 0.7424-2.5365 0.9489-3.2301zm-2.7001 8.4313c-0.4281 0.4634-0.9008 0.7506-0.9326 1.0804-0.0256 0.265 0.5152 0.8434 0.7467 0.8148 0.3602-0.0446 0.8397-0.435 0.9446-0.778 0.0712-0.2328-0.4119-0.6354-0.7587-1.1172z"/>
 <path d="m2326.9 1198.9c6.1309-7.2161 12.184-13.964 17.78-21.072 3.2302-4.1031 7.5491-6.1774 12.126-5.6683 6.167 0.6859 12.2-0.5518 18.489 0.2457 7.5032 0.9512 15.596 0.6901 23.282-0.1023 11.185-1.153 21.412 2.161 31.841 4.8021 2.8513 0.722 5.7112 2.136 7.7329 4.4313 4.969 5.642 11.556 6.7858 18.506 6.9518 2.728 0.0653 5.4116 0.2108 7.5142 2.1194 8.5784 7.7863 18.807 6.0594 28.822 4.8768 6.002-0.7085 11.902-1.4794 17.745 0.641 1.5813 0.5737 3.4739 1.3711 3.2295 3.2749-0.2598 2.0259-2.3442 1.1178-3.7078 1.4236-9.7451 2.1843-19.56 1.4083-29.346 0.6511-5.1667-0.3998-9.5681 2.4781-14.571 2.7609-2.0774 0.1173-1.3806 2.2714-1.0454 3.6808 1.7212 7.2345-0.6448 13.732-3.354 20.261-1.9612 4.7266-3.2739 9.4343-2.179 14.916 1.6836 8.4299-0.6042 16.734-2.5874 24.962-1.4688 6.0936-4.4238 11.848-2.7781 18.606 1.2488 5.1282-2.0701 12.492-6.1868 12.969-2.4075 0.2789-5.5942 1.6492-8.8-0.943-10.484-8.4772-14.307-20.838-19.511-32.239-4.6941-10.284-6.8494-21.351-7.3525-32.916-0.293-6.7361-3.7661-13.351-5.949-19.974-0.4939-1.4983-1.936-2.1471-3.5769-2.3094-7.3853-0.7316-14.221-3.3278-20.926-6.3212-2.9573-1.3203-6.0955-1.8042-9.2556-1.7168-4.8101 0.1332-8.219 3.2321-9.2686 8.016-0.1785 0.813-0.2258 1.6771-0.5374 2.434-0.6941 1.6865-1.4622 3.8821-3.3398 3.9845-2.3093 0.1257-2.3303-2.3315-2.8533-4.0464-0.3247-1.0647-0.124-2.3735-1.5012-3.2762-1.1182 2.2047-2.1235 4.4366-3.3638 6.5293-0.6235 1.0515-1.1938 2.6753-2.9216 2.1831-1.5234-0.4341-1.6433-1.9371-1.8594-3.2521-0.2612-1.5881 0.3958-3.3317-0.8154-4.83-1.9116-0.0635-2.2249 1.7284-3.1853 2.7363-2.0947 2.1976-3.9836 3.7826-6.0378-0.2125-1.7944-3.4889-4.7576-1.5171-6.9729-0.6542-5.5952 2.1801-11.3 3.8284-17.217 4.7604-1.4697 0.2316-3.0054 0.448-4.4626 0.2727-2.9731-0.3577-3.9878-2.8907-2.2456-4.5968 4.4568-4.365 8.4246-10.158 16.127-8.7744 1.1389 0.2047 2.394 0.4868 3.4609 0.212 1.9819-0.5107 4.9102-0.264 5.2493-2.9006 0.3159-2.4555-2.9517-1.4574-4.1971-2.8943z"/>
 <path d="m1379.4 360.56c7.5596 3.6419 15.574 1.8901 23.44 2.0142 13.063 0.2061 26.153-2.3975 39.194 0.4328 3.1489 0.6834 6.1632 1.5512 8.3013 4.1451 5.7222 6.9416 14.618 6.5056 22.043 9.4741 1.3622 0.5446 3.1809 0.3915 3.9963 1.7462 2.6931 4.4738 7.0328 4.122 11.394 4.597 9.2361 1.006 18.111-2.091 27.25-1.8729 3.3296 0.0795 6.5817 0.4275 10.192 1.364-1.8683 2.8531-5.2836 1.0494-7.4196 3.1732 1.8229 2.6497 5.2213 2.205 8.1615 3.8615-9.6718 2.4553-18.793 2.1095-28.001 1.0121-7.5964-0.9052-15.248-1.342-22.868-2.0568-3.0316-0.2844-4.9219 0.6133-6.1224 3.7187-1.7888 4.6265-4.1116 9.0503-6.2928 13.518-0.4783 0.9796-0.7046 1.9851-0.328 2.8738 3.4126 8.054 0.2164 16.398 1.1512 24.554 0.7905 6.8974-2.3738 13.973 0.9208 20.778 0.2761 0.5699 0.2695 1.3076 0.2799 1.9692 0.0261 1.6463 0.334 3.6042-1.5416 4.365-1.9814 0.8037-1.6442-2.255-3.6382-2.3929-0.2655 1.9882-0.3412 4.0865-0.8746 6.0611-0.4209 1.5577 0.6724 5.8687-3.64 2.034-1.981-1.7615-1.8486 2.7138-3.9166 3.3341-1.4753-1.0002-2.2837-3.5658-5.1205-2.6063-1.0577 0.3577-1.7677-1.3018-2.2152-2.3723-4.8905-11.696-13.476-21.264-18.644-32.886-3.1224-7.0217-6.2716-13.905-7.735-21.449-0.734-3.7839-1.9089-7.3453-3.4222-10.907-1.8162-4.2737-5.1571-5.511-9.1307-5.6147-3.7048-0.0968-3.5381 3.6954-5.1923 5.7184-2.9596 3.6198-1.6293 9.3082-6.3888 12.02-1.5763 0.898-0.037 3.1155-0.2172 4.7236-0.0736 0.6572 0.0352 1.3328 1e-3 1.9969-0.1276 2.4735 0.3224 5.8987-2.347 6.5704-3.1002 0.7802-2.4691-3.1929-3.764-4.8723-0.4774-0.6192-0.7583-1.3899-1.5537-2.8957-0.8351 4.496-0.6737 8.357-2.5117 11.714-0.4561 0.833-0.6992 2.1525-1.9451 1.8383-0.5685-0.1434-1.0732-1.1607-1.3119-1.8795-0.8773-2.6436-1.631-5.3282-2.7228-8.9701-1.3003 3.3861-2.2169 5.9021-3.239 8.3745-0.4363 1.0556-0.9548 2.3033-2.4237 2.0954-1.4774-0.2091-1.4152-1.6305-1.7821-2.6943-0.6866-1.991 0.1152-4.3506-1.4078-6.1372-0.4189 0.0775-0.8193 0.0296-1.0167 0.2073-1.5242 1.3727-2.1516 4.6616-4.6229 3.8218-2.7391-0.9308-1.4077-4.0679-1.5253-6.2456-0.1124-2.0798-0.3157-3.5536-2.3539-4.9749-3.2651-2.2768-2.5804-6.1994-2.5414-9.6363 0.1105-9.747 0.137-9.7916-9.4287-7.319-9.8169 2.5375-19.307 6.2706-29.515 7.4081-3.769 0.42-7.6506-0.5484-11.349 1.0676-1.2471 0.5449-2.0885-0.8573-2.5833-1.8824-0.6359-1.3175 0.5221-1.7963 1.4344-2.1007 4.5261-1.5104 8.0365-4.4791 11.544-7.5709 3.0541-2.6924 7.2874-2.8079 10.455-1.45 6.5691 2.8165 12.365-0.2921 18.414-1.1577 12.363-1.7692 15.465-7.3437 16.799-19.642 0.7574-6.9814 3.1077-9.5183 10.75-10.578 2.3004-0.319 4.6479-0.2983 6.9739-0.4332l-0.0389 0.0166zm124.72 27.125c-4.0914-2.0045-12.284-2.1534-16.152-0.5098 5.0083 0.4099 10.005 1.4802 16.152 0.5098z"/>
 <path d="m2120.8 1180.7c-2.3137-1.9113-5.0754-2.0818-7.9043-2.104-2.2527-0.0178-3.2847-0.9995-1.783-3.1008 5.8027-8.1196 6.4128-17.674 7.6104-27.073 0.1475-1.1565 0.177-2.3337 0.4014-3.4738 0.562-2.8569-0.0076-7.9268 2.53-7.8544 3.147 0.0897 2.6382 4.9711 3.0269 7.9312 0.5476 4.1735-0.3848 8.2866-1.2104 12.373-0.3503 1.7327-1.2126 3.4673 0.0168 5.4792 3.1665-1.7614 3.6702-5.1028 4.7769-7.905 1.5247-3.8604 2.4824-7.942 3.9331-11.836 0.4561-1.2238 0.3843-3.5132 2.4209-3.2498 2.0283 0.2625 2.0635 2.3696 2.2666 3.9933 0.7893 6.3013-1.5073 11.757-4.6792 16.994-0.9763 1.6121-2.7905 2.9174-2.2302 5.8256 4.9812-2.022 8.1086-5.808 11.225-9.556 1.271-1.5287 2.2788-3.276 3.4136-4.9186 0.9072-1.3132 1.6641-3.5104 3.6772-2.198 1.6079 1.0481 0.8416 3.0896 0.2166 4.6122-1.5776 3.8431-5.0503 6.1169-7.728 9.0536-0.8623 0.9459-2.2805 1.9292-1.6658 3.3706 0.7219 1.6919 2.3306 0.5853 3.5542 0.5533 4.1406-0.108 8.2813-0.2363 12.419-0.4213 3.3069-0.1478 4.0889 1.104 2.939 4.244-3.8892 10.62-9.8445 19.321-20.927 23.481-2.8418 1.0668-3.1455 2.2764-0.3789 3.8671 0.7188 0.4135 1.3582 1.3389 2.0554 1.3615 12.842 0.4159 23.591 10.053 37.034 8.2423 3.0974-0.4171 5.2019-2.8048 8.3577-2.7091 4.7544 0.1438 9.2266 0.8474 13.176 3.8003 1.0747 0.8036 2.5435 1.1046 2.0095 2.8665-0.481 1.5879-1.9199 1.4711-3.2258 1.7896-10.341 2.5222-20.463 0.3287-30.67-1.0889-12.054-1.6743-24.234-1.8215-36.38-2.2632-6.8391-0.2487-12.885 3.1233-19.358 4.5604-12.079 2.6818-24.204 4.8925-36.401 0.6409-4.0657-1.4172-8.0557-3.0507-12.082-4.5817-4.7612-1.8107-9.4199-1.7117-14.004 0.6503-10.484 5.4025-21.601 5.5963-33.1 4.7748-12.103-0.8646-24.141 0.9635-36.084 3.0671-1.3389 0.2358-3.3313 1.5449-4.0331-0.1428-0.7611-1.8303 1.3053-2.8241 2.7323-3.5964 4.0731-2.2047 7.6937-4.8168 11.15-8.048 5.7146-5.3433 12.665-3.1581 18.734-0.3566 12.971 5.9875 24.706 5.2366 33.392-3.3912 4.4548-4.425 7.8779-9.8014 12.957-13.747 2.5815-2.0056 1.0313-4.6406-1.0034-6.3923-5.6158-4.835-11.863-8.6737-19.23-10.062-4.5372-0.8547-8.2158-2.9476-12.074-5.3945-17.94-11.379-24.795-28.662-26.779-48.674-0.2162-2.1812-1.2231-5.4709 1.1968-6.3641 2.6694-0.9852 5.5425 0.0745 7.9802 2.5354 5.6521 5.7058 11.008 11.914 18.865 14.88 0.6079 0.2295 1.3369 0.5608 1.6553 1.0675 2.5507 4.0574 4.9563 8.2622 10.969 6.1898 0.223-0.0769 0.6854 0.182 0.8737 0.4155 6.511 8.0773 17.847 8.3406 24.961 15.391 7.3076 7.2427 17.488 10.809 24.085 18.951 1.1868 1.4648 2.8386 1.9777 4.7078 2.4667 6.501 1.7017 12.755 3.97 18.757 7.236 2.9539 1.6072 7.1604 1.1206 10.805 1.1637 1.9395 0.0229 1.9385-1.9287 1.9756-3.446 1.8411 1.6686 3.7024 3.3751 6.4263 2.1113 0.5645-0.2618 0.6431-1.2957 0.0889-1.7238-2.0452-1.5799-4.1966-2.6394-6.442-0.2689z"/>
 <path d="m1785.4 309.13c0.132 3.7413 2.7366 6.3974 3.198 9.9183 0.2023 1.5439 0.3815 3.1408-1.0632 4.0897-1.843 1.2107-2.6503-0.6529-3.6201-1.6252-1.6752-1.6795-2.7701-3.7324-6.0338-2.286-1.6449 0.729-3.3492-1.7593-4.6849-3.2182-2.3649-2.5829-4.4965-5.3034-8.6234-5.1263-1.8666 0.0801-3.2764-1.4315-4.5018-2.8657-2.3776-2.7825-4.5944-4.9331-9.1069-4.6387-3.8521 0.2514-5.5463-4.3444-7.3987-7.3403-1.4432-2.3343-2.2472-5.2372-2.6743-7.99-0.8646-5.5739-2.635-10.575-6.6228-14.729-3.3479-3.4874-2.2751-7.7289-1.6147-11.849 1.1554-7.2077 0.9921-6.7236-5.8505-8.9441-13.351-4.3326-26.816-0.9645-40.211-1.3901-12.829-0.4076-25.588-0.0562-38.295 2.191-4.3577 0.7707-8.9539 0.5581-13.413-0.4675-4.4901-1.0327-8.7953 1.3913-13.739 0.1095 3.3866-1.624 6.7367-3.3309 10.172-4.8441 2.4407-1.0751 4.6915-2.2152 6.7063-4.1241 4.3307-4.1036 14.901-4.3942 19.957-0.9392 0.6647 0.4542 1.4375 0.9031 2.2113 1.0225 18.609 2.8716 35.089-0.7022 47.736-15.846 1.309-1.5673 1.2601-2.5188-0.7804-3.29-5.9672-2.2552-11.401 0.6381-12.884 6.9222-0.2676 1.1333-0.506 2.2936-0.9512 3.3607-0.9933 2.3812-2.3082 2.7241-3.8365 0.3928-0.3652-0.5571-0.7234-1.1192-1.0701-1.688-3.5872-5.8853-3.5569-5.8443-9.1146-1.9049-1.5137 1.0729-2.9224 2.7962-5.2754 1.1985-1.3085-0.8885-2.9867-0.2892-4.3066 0.4306-6.5502 3.5716-12.226 1.6485-17.362-2.8386-4.0558-3.5428-7.0819-7.9408-9.4143-12.788-0.6356-1.321-1.599-2.9921-0.1511-4.1268 1.7759-1.3918 3.2697 0.2464 4.1792 1.4652 4.3612 5.8441 10.498 9.055 16.933 11.883 4.8951 2.1514 9.3816 1.4463 14.365-0.6269 14.023-5.8343 28.58-9.0158 44.019-8.6606 12.451 0.2865 24.934-0.9132 37.417-0.0128 5.4341 0.392 9.928 1.9295 14.293 5.7963 5.6683 5.0208 13.616 4.7971 20.814 5.3172 5.6746 0.41 11.306 0.0779 16.202 3.6934 1.4561 1.0752 2.3909 2.3997 2.4708 4.1267 0.1138 2.4663-2.5425 0.7465-3.8464 2.8029 10.435 0.5772 20.125 4.0855 30.357 0.0543 6.2968-2.4808 12.667-0.1407 18.71 2.2707 0.7036 0.2808 0.8954 1.0147 0.689 1.6773-0.4495 1.4433-1.7362 1.2914-2.8885 1.3777-9.3096 0.6973-18.566 0.4412-27.888-0.4215-9.9048-0.9167-19.829-2.2605-29.871-1.2772-2.7418 0.2685-3.5446 0.7841-3.6685 3.613-0.3629 8.2788-1.3009 16.517-2.2644 24.759-0.6293 5.3838 0.3616 10.937 0.1462 16.395-0.1943 4.9317-0.0414 9.9162-1.2556 14.792-0.6609 2.6541 1.8032 4.1149 2.9388 6.0098 1.5737 2.626 3.095 5.1879 2.8077 8.3369-0.2017 2.2125-1.1855 3.2034-3.1233 1.189-2.9838-3.1018-5.9467-6.2236-8.9182-9.3371z"/>
 <path d="m776.18 579.4c0.174-2.1325 1.8891-2.6761 3.2206-3.5385 4.7213-3.0579 9.6415-5.6682 13.7-9.8463 5.2119-5.3651 12.237-3.2155 18.546-2.5909 17.427 1.7252 33.812-0.1631 47.647-12.194 2.2566-1.9623 4.3502-4.1128 6.5106-6.1853 1.217-1.1674 2.6456-2.4479 1.7466-4.2648-0.8725-1.7631-2.6077-2.4814-4.6364-2.2164-5.6863 0.7427-10.969 2.3673-15.548 6.0919-5.1839 4.2169-8.6464 4.1874-13.783-0.0977-2.9114-2.4289-6.0357-4.777-7.647-8.427-0.9833-2.2275-3.9615-4.336-0.761-6.9197 2.9234-2.3599 5.9335-4.3195 9.5582-0.846 1.8207 1.7448 3.9808 2.6104 6.825 1.967 3.425-0.7747 5.9655 1.7181 8.4536 3.5883 2.2168 1.6663 4.1832 1.9332 6.894 1.0508 10.894-3.546 22.404-2.4435 33.599-3.8912 10.337-1.3368 20.936-0.6927 31.421-0.8125 5.9703-0.0682 11.177 1.6367 14.523 7.0753 1.0231 1.6631 2.5621 2.4086 4.4792 2.8223 11.534 2.4883 23.04 5.1057 34.566 7.6297 3.6217 0.793 7.7361 0.9147 6.0313 6.6325-0.4382 1.4695 1.0305 1.9484 2.2216 2.0448 7.3661 0.5963 14.464 2.4543 22.212 0.4797 4.4747-1.1404 11.035-2.3882 14.833 3.5374 1.1118 1.7345 5.4794 0.7739 4.5348 3.4738-1.0751 3.0732-4.0543 0.2375-6.1593 0.1165-16.625-0.9566-32.784-5.5262-49.419-6.4684-0.9951-0.0564-1.9908-0.3054-2.9779-0.2644-5.7336 0.2376-6.2044 1.0717-5.3049 6.5773 1.3875 8.4917 0.2307 16.9-1.5712 25.22-1.1721 5.4125-2.3718 10.738 1.1403 15.849 0.6913 1.006 1.0928 2.6787-0.0871 3.7139-1.3497 1.1844-2.98 0.5671-4.0649-0.4626-1.9564-1.8571-3.8342-2.2263-6.3026-0.9923-2.6787 1.3391-5.2947-0.3745-6.837-1.8881-4.4414-4.3589-9.5219-3.0295-14.396-2.1576-2.1916 0.3921-4.0614 0.1776-5.7003-0.6838-2.9731-1.5622-5.5486-3.4282-9.2346-1.5787-1.6522 0.829-3.3151-0.7856-3.7057-2.5057-1.6103-7.0897-5.0343-13.258-9.0229-19.231-1.5172-2.2725-1.0859-5.1751-1.2575-7.8156-0.1755-2.702-1.3546-4.0311-4.0694-4.7934-13.212-3.7101-26.167-4.7635-39.762-0.7687-13.707 4.0277-28.433 3.204-42.302 6.7847-12.089 3.121-24.83 2.5985-36.654 6.9698-0.388 0.1436-0.9219-0.1064-1.4596-0.1832z"/>
 <path d="m2150.4 1387.3c3.5076-4.1121 8.4685-6.4325 12.643-9.6129 4.0752-3.1044 10.154-2.5133 15.46-0.8221 3.646 1.1621 7.2864 2.3716 10.992 3.3131 10.482 2.6637 19.387-0.011 26.436-8.2954 3.4441-4.0482 6.832-8.1544 10.049-12.384 5.9072-7.7682 6.3245-18.09 0.9172-25.763-0.3315 2.4149-0.5369 4.4956-0.925 6.5415-0.2795 1.474-0.7236 3.2336-2.4509 3.4003-1.9739 0.1908-2.0562-1.7948-2.5752-3.1306-0.9954-2.5603-0.3398-5.5942-2.1682-8.3441-1.9199 2.7751-1.0303 5.8792-2.3203 8.3256-0.7971 1.5116-1.1282 4.0542-3.3899 3.6488-1.8079-0.3237-1.6934-2.6135-1.9541-4.2123-0.262-1.6035 0.4502-3.327-0.7566-5.142-2.2073 1.1141-2.5342 3.7146-4.105 5.2483-0.7642 0.7461-1.5054 1.3678-2.5901 1.0458-0.9775-0.2903-1.2095-1.2692-1.032-2.0426 1.7935-7.8129-2.5112-15.141-1.5293-23.039 0.9343-7.5155 3.8765-10.772 10.878-8.3119 13.694 4.8112 28.04 7.0294 41.883 11.217 14.934 4.5181 24.629 14.494 30.883 28.334 0.6157 1.3624 1.1858 2.7689 1.5645 4.2107 1.2798 4.8723 3.698 7.3041 9.313 6.0836 4.1365-0.899 8.1335 1.183 11.93 2.8525 2.5132 1.1052 2.7664 3.5737 1.7129 5.5392-2.2781 4.2509-0.3423 6.342 3.1582 8.337 1.8677 1.0646 4.9734 2.0093 0.7725 5.0164-2.5132 1.799 0.645 3.9321 2.4871 4.4717 7.3149 2.1421 14.659 4.493 22.468 3.5146 5.4526-0.6832 10.592 0.38 15.518 2.618 1.3572 0.6167 2.8069 1.6063 2.4014 3.3826-0.5002 2.193-2.3186 0.986-3.675 1.2003-10.52 1.662-20.296-2.5193-30.443-3.7189-1.4705-0.1738-3.1069-0.8376-4.25 0.46-1.3203 1.499-0.366 3.1559 0.2563 4.6793 0.8767 2.1469 1.9946 4.2108 2.697 6.41 1.2434 3.8929-4.1455 11.36-8.1213 11.06-2.3362-0.1755-2.8147-2.8203-3.3997-4.5112-2.0735-5.9972-4.6699-11.674-7.8413-17.189-2.8086-4.884-6.4717-7.2391-12.102-6.9211-6.1575 0.3478-12.302 0.8521-18.245 2.4756-12.468 3.4064-24.638 3.0538-36.564-2.1566-1.8398-0.804-3.7256-1.5803-5.7864-1.1388-15.747 3.3733-31.596 3.2675-47.611 2.4139-9.1958-0.4902-18.461 1.9375-27.79 1.2588-0.9328-0.068-1.9459 0.5386-2.7926-0.3237zm162.98 19.07c-0.0969 0.755-0.2986 1.2615-0.1736 1.6674 0.1121 0.3629 0.584 0.6149 0.897 0.9158 0.0969-0.4172 0.3433-0.8724 0.25-1.2418-0.1035-0.4102-0.5169-0.742-0.9734-1.3414z"/>
 <path d="m1747.9 1135.8c9.8173 2.0476 19.63 0.556 29.264-0.8646 11.104-1.6375 18.127-9.8716 24.816-18.076 1.2357-1.5155 0.145-2.6154-1.2534-2.9716-2.2417-0.5708-4.5801-1.1746-6.859-1.1104-7.4523 0.21-14.899 0.6737-22.342 1.1292-2.7261 0.1667-5.4165 0.256-7.5081-1.8103-6.088-6.0143-11.487-12.521-14.158-20.858-0.4869-1.5199-1.634-3.3107 0.0764-4.5427 1.3086-0.9425 3.082-1.2258 4.7426-0.3263 1.1608 0.6289 2.6453 0.9425 3.4677 1.8606 2.4497 2.7345 4.4858 5.1489 9.0518 4.2493 2.9749-0.5862 5.0072 2.8901 7.0255 5.0334 1.6431 1.7448 3.076 2.8092 5.5793 1.5807 1.2651-0.6208 3.3029-1.2036 4.2126 0.1687 2.8191 4.2521 6.3527 2.2667 9.8333 1.5898 5.0637-0.9846 10.136-1.9318 15.223-2.7858 3.2095-0.5391 6.6215-0.407 9.0735 1.7206 3.7941 3.2919 8.1613 3.6028 12.621 3.2399 6.7023-0.5454 12.832 1.1981 18.911 3.6406 13.168 5.2913 26.614 9.4194 40.974 9.8132 4.099 0.1124 7.4655 2.7004 11.258 3.9259 8.4935 2.7444 16.718 2.5117 25.182-0.4248 4.7783-1.6577 9.8961-3.1522 15.147-1.4579 1.5536 0.5013 3.8442 0.7297 3.7635 2.6136-0.0775 1.8066-2.2867 1.7682-3.8855 2.2869-11.262 3.6548-22.714 1.4606-34.093 1.3975-2.6649-0.0149-5.3408-0.1798-7.9929-6e-4 -10.108 0.6833-15.272 9.072-11.44 18.466 0.499 1.2233 1.4523 2.5408 0.5747 3.7516-0.9545 1.3168-2.3792 0.4038-3.6643 0.1935-13.723-2.2462-27.327-7.7449-41.383-1.583-1.3474 0.5906-2.9333 0.2926-3.5663-0.9607-1.8004-3.5638-4.7605-3.3787-8.0521-3.2582-2.8004 0.1025-5.8004 0.016-8.4117-0.8711-12.768-4.337-25.57-2.731-38.448-0.8687-12.819 1.854-25.797 2.153-38.47 5.6317-8.3998 2.3058-17.446-0.667-26.065 1.7188-0.3669-2.4529 1.0211-2.5935 1.9965-3.0476 4.7903-2.23 9.7568-3.9229 14.043-7.3629 2.9961-2.4052 7.1086-2.6401 10.893-0.718 0.0058 4e-3 -0.1369-0.1118-0.1369-0.1118z"/>
 <polygon points="2303.7 1219.2 2303.9 1219 2304 1219.3"/>
 <path d="m1379.4 360.55c0.2668 0.0683 0.5336 0.1366 0.8004 0.205-0.2755-0.0629-0.551-0.1258-0.8328-0.1884-0.0063 3e-4 0.0324-0.0166 0.0324-0.0166z"/>
</svg>
