<?xml version="1.0" encoding="utf-8"?>
<!-- Generator: Adobe Illustrator 27.3.0, SVG Export Plug-In . SVG Version: 6.00 Build 0)  -->
<svg version="1.1" id="Layer_1" xmlns="http://www.w3.org/2000/svg" xmlns:xlink="http://www.w3.org/1999/xlink" x="0px" y="0px"
	 viewBox="0 0 98.4 249.9" style="enable-background:new 0 0 98.4 249.9;" xml:space="preserve">
	 <style>
	 	.chart-color-orange { fill:#ff9036}
	 </style>
<g>
	<path class="chart-color-orange" d="M90.7,54.1c-5.1-5.2-11.2-7.9-18.6-7.9H26.4c-7.2,0-13.3,2.7-18.5,7.8C2.7,59.5,0,65.6,0,72.6v64.2
		c0,2.4,0.8,4.6,2.7,6.3c1.7,1.7,3.8,2.5,6.3,2.5c2.8,0,4.9-0.8,6.6-2.5c1.5-1.7,2.3-3.9,2.3-6.3V79.4c2.9,2.1,4.7,5.4,4.7,9v149.9
		c0,3.1,1.3,5.9,3.8,8.1c2.4,2.4,5.3,3.4,8.4,3.4c3.4,0,6.3-1.1,8.5-3.4c2.5-2.2,3.5-5.1,3.5-8.1v-89.6c0-1.4,1.2-2.6,2.6-2.6h0
		c1.4,0,2.6,1.2,2.6,2.6v89.6c0,3.1,1.2,5.9,3.5,8.1c2.2,2.4,5.2,3.4,8.8,3.4c3.1,0,5.7-1.1,8.1-3.4c2.2-2.2,3.4-5.1,3.4-8.1V88.5
		c0-3.6,1.8-7,4.8-9.1l0,0v57.4c0,2.4,0.8,4.6,2.4,6.3c1.9,1.7,4.1,2.5,6.6,2.5c2.8,0,4.9-0.8,6.5-2.5c1.4-1.7,2.4-3.9,2.4-6.3V72.6
		C98.4,65.6,96,59.5,90.7,54.1z"/>
	<ellipse transform="matrix(0.7071 -0.7071 0.7071 0.7071 -0.3209 40.9118)" class="chart-color-orange" cx="49.2" cy="20.8" rx="20.8" ry="20.8"/>
</g>
</svg>
